<svg width="53" height="60" viewBox="0 0 53 60" fill="none" xmlns="http://www.w3.org/2000/svg">
<path d="M22.527 36.1953C20.7248 37.7727 16.3252 36.1356 14.3506 35.1199C13.8166 34.8616 13.5719 35.0122 13.5163 35.1199C11.9311 37.1214 8.69389 41.1962 8.42691 41.483C8.09318 41.8415 6.75826 42.2 5.8405 41.1245C5.1063 40.2642 5.53459 38.8541 5.8405 38.2566L10.2624 33.0586C7.78726 33.1183 2.60333 33.202 1.66889 33.0586C0.500838 32.8793 0.000244141 31.8038 0.000244141 30.3699C0.000244141 29.2227 0.778945 28.3385 1.1683 28.0397H11.0133C8.26004 25.9485 2.53659 21.5152 1.66889 20.5115C0.58427 19.2568 1.08486 18.0917 1.66889 17.3747C2.13611 16.8011 3.17067 16.6577 4.08843 17.3747L12.1814 23.8275L11.347 16.6577C11.4027 15.9407 11.8309 14.5068 13.0991 14.5068C14.3673 14.5068 14.9068 15.3433 15.0181 15.7615C15.324 17.6436 15.9358 21.6586 15.9358 22.6624C15.9358 23.6662 16.3808 24.0963 16.6033 24.186L21.9429 16.12C19.5234 14.2678 14.6006 10.282 13.85 9.66718C12.8488 8.84711 12.7654 8.13013 13.5163 6.97852C14.2672 5.8269 15.2684 6.24807 16.6033 6.97852L21.192 10.1153L20.5246 3.73869C20.3577 2.4541 20.4078 0.669118 21.9429 0.525728C23.7784 0.354284 24.1956 1.04998 24.3625 2.30471L25.3637 11.9974C27.1157 9.33858 30.8535 3.77006 31.7879 2.76629C32.956 1.51158 34.1406 1.7939 35.2921 2.76629C36.4436 3.73869 35.9874 4.81412 35.5424 5.62072C34.3465 7.35341 31.4876 11.5493 30.6199 12.6247C29.7522 13.7002 30.2584 14.3275 30.6199 14.5068L35.2921 15.7615C35.3199 16.8071 35.3588 19.0417 35.2921 19.6153C35.2254 20.1888 35.2921 19.6153 30.6199 18.8983C29.0347 18.5398 24.9465 18.4367 22.527 21.4077C20.7387 23.6035 19.8571 26.0546 22.0264 29.7291C23.3491 31.9697 24.3291 34.618 22.527 36.1953Z" fill="#00B2FF"/>
<path d="M30.1834 25.6976C32.1961 23.1864 36.4171 25.754 38.4019 26.7114C38.9386 26.9548 39.1846 26.8128 39.2405 26.7114C40.8339 24.8247 44.0877 20.9838 44.3561 20.7135C44.6915 20.3756 46.0333 20.0377 46.9558 21.0514C47.6938 21.8624 47.2633 23.1915 46.9558 23.7547L42.5111 28.6543C44.999 28.598 49.4728 28.6543 50.4217 28.6543C52.8261 28.6543 52.8261 29.837 52.8261 31.1886C52.8261 32.2699 52.4826 33.385 51.1489 33.385H41.7564C44.5238 35.3561 50.2767 39.5349 51.1489 40.4811C52.2391 41.6637 51.9626 42.501 51.1489 43.4378C50.1216 44.6204 49.3319 43.663 48.7169 43.4378L40.5823 37.3554L41.4209 44.1136C41.365 44.7894 40.9345 46.141 39.6598 46.141C38.3851 46.141 37.8428 45.3525 37.731 44.9583C37.4235 43.1843 36.8085 39.3998 36.8085 38.4536C36.8085 37.5075 36.3612 37.102 36.1376 37.0175L30.7704 44.6204C33.2024 46.3663 38.2341 50.0269 38.905 50.7027C39.7437 51.5475 39.9114 52.1389 39.2405 53.237C38.7038 54.1156 37.6192 53.9362 36.8085 53.5701L31.5252 50.2804L32.3027 56.745C32.4704 57.9558 32.3135 59.1842 30.7704 59.3194C29.2274 59.4545 28.5062 58.4746 28.3384 57.9677L27.3321 48.5064C25.571 51.0125 21.814 56.2613 20.8747 57.2074C19.7007 58.3901 18.9066 58.5469 17.3525 57.2074C16.3918 56.3794 16.9053 54.8421 17.3525 54.0818C18.5546 52.4486 21.1766 48.9287 22.0488 47.915C22.921 46.9013 22.4122 46.3099 22.0488 46.141L17.3525 44.9583C17.3246 43.9728 17.2854 41.8665 17.3525 41.3258C17.4196 40.7852 16.8457 41.5571 22.0488 42.501C24.6601 42.9747 28.2958 41.8997 30.1834 39.6363C31.8733 37.61 32.9706 34.6067 30.7704 31.4319C29.6407 29.8015 28.3384 27.9996 30.1834 25.6976Z" fill="#00B2FF"/>
</svg>
