<svg width="29.4" height="29.4" viewBox="0 0 49 49" fill="none" xmlns="http://www.w3.org/2000/svg">
<path fill-rule="evenodd" clip-rule="evenodd" d="M24.5 0C10.9637 0 0 11.1875 0 25C0 36.0625 7.01312 45.4062 16.7519 48.7188C17.9769 48.9375 18.4363 48.1875 18.4363 47.5312C18.4363 46.9375 18.4056 44.9688 18.4056 42.875C12.25 44.0312 10.6575 41.3438 10.1675 39.9375C9.89188 39.2188 8.6975 37 7.65625 36.4062C6.79875 35.9375 5.57375 34.7812 7.62563 34.75C9.555 34.7188 10.9331 36.5625 11.3925 37.3125C13.5975 41.0938 17.1194 40.0312 18.5281 39.375C18.7425 37.75 19.3856 36.6562 20.09 36.0312C14.6388 35.4062 8.9425 33.25 8.9425 23.6875C8.9425 20.9688 9.89188 18.7188 11.4538 16.9688C11.2088 16.3438 10.3513 13.7812 11.6988 10.3438C11.6988 10.3438 13.7506 9.6875 18.4363 12.9062C20.3962 12.3438 22.4788 12.0625 24.5613 12.0625C26.6438 12.0625 28.7262 12.3438 30.6863 12.9062C35.3719 9.65625 37.4238 10.3438 37.4238 10.3438C38.7713 13.7812 37.9138 16.3438 37.6688 16.9688C39.2306 18.7188 40.18 20.9375 40.18 23.6875C40.18 33.2812 34.4531 35.4062 29.0019 36.0312C29.89 36.8125 30.6556 38.3125 30.6556 40.6562C30.6556 44 30.625 46.6875 30.625 47.5312C30.625 48.1875 31.0844 48.9688 32.3094 48.7188C37.173 47.0432 41.3992 43.8535 44.3933 39.5987C47.3874 35.3439 48.9985 30.2381 49 25C49 11.1875 38.0363 0 24.5 0Z" fill="white"/>
</svg>
