<svg width="150" height="50" viewBox="0 0 189 59" fill="none" xmlns="http://www.w3.org/2000/svg">
<path d="M22.5267 35.6953C20.7246 37.2727 16.3249 35.6356 14.3504 34.6199C13.8164 34.3616 13.5717 34.5122 13.516 34.6199C11.9308 36.6214 8.69364 40.6962 8.42666 40.983C8.09293 41.3415 6.75802 41.7 5.84026 40.6245C5.10606 39.7642 5.53434 38.3541 5.84026 37.7566L10.2622 32.5586C7.78701 32.6183 2.60309 32.702 1.66865 32.5586C0.500594 32.3793 0 31.3038 0 29.8699C0 28.7227 0.778701 27.8385 1.16805 27.5397H11.0131C8.2598 25.4485 2.53634 21.0152 1.66865 20.0115C0.584026 18.7568 1.08462 17.5917 1.66865 16.8747C2.13587 16.3011 3.17043 16.1577 4.08818 16.8747L12.1811 23.3275L11.3468 16.1577C11.4024 15.4407 11.8307 14.0068 13.0989 14.0068C14.367 14.0068 14.9066 14.8433 15.0178 15.2615C15.3237 17.1436 15.9356 21.1586 15.9356 22.1624C15.9356 23.1662 16.3805 23.5963 16.603 23.686L21.9427 15.62C19.5232 13.7678 14.6004 9.782 13.8498 9.16718C12.8486 8.34711 12.7651 7.63013 13.516 6.47852C14.2669 5.3269 15.2681 5.74807 16.603 6.47852L21.1918 9.61529L20.5243 3.23869C20.3575 1.9541 20.4075 0.169118 21.9427 0.0257283C23.7782 -0.145716 24.1954 0.549977 24.3622 1.80471L25.3634 11.4974C27.1155 8.83858 30.8533 3.27006 31.7877 2.26629C32.9558 1.01158 34.1404 1.2939 35.2919 2.26629C36.4434 3.23869 35.9871 4.31412 35.5422 5.12072C34.3463 6.85341 31.4873 11.0493 30.6196 12.1247C29.752 13.2002 30.2581 13.8275 30.6196 14.0068L35.2919 15.2615C35.3197 16.3071 35.3586 18.5417 35.2919 19.1153C35.2251 19.6888 35.2919 19.1153 30.6196 18.3983C29.0344 18.0398 24.9463 17.9367 22.5267 20.9077C20.7384 23.1035 19.8569 25.5546 22.0261 29.2291C23.3488 31.4697 24.3289 34.118 22.5267 35.6953Z" fill="#00B2FF"/>
<path d="M30.1832 25.1976C32.1959 22.6864 36.4169 25.254 38.4016 26.2114C38.9383 26.4548 39.1843 26.3128 39.2402 26.2114C40.8336 24.3247 44.0875 20.4838 44.3558 20.2135C44.6913 19.8756 46.0331 19.5377 46.9555 20.5514C47.6935 21.3624 47.263 22.6915 46.9555 23.2547L42.5109 28.1543C44.9988 28.098 49.4725 28.1543 50.4215 28.1543C52.8259 28.1543 52.8259 29.337 52.8259 30.6886C52.8259 31.7699 52.4824 32.885 51.1486 32.885H41.7561C44.5236 34.8561 50.2765 39.0349 51.1486 39.9811C52.2388 41.1637 51.9623 42.001 51.1486 42.9378C50.1213 44.1204 49.3316 43.163 48.7166 42.9378L40.582 36.8554L41.4207 43.6136C41.3647 44.2894 40.9343 45.641 39.6596 45.641C38.3849 45.641 37.8425 44.8525 37.7307 44.4583C37.4232 42.6843 36.8083 38.8998 36.8083 37.9536C36.8083 37.0075 36.361 36.602 36.1374 36.5175L30.7702 44.1204C33.2022 45.8663 38.2339 49.5269 38.9048 50.2027C39.7434 51.0475 39.9111 51.6389 39.2402 52.737C38.7035 53.6156 37.6189 53.4362 36.8083 53.0701L31.525 49.7804L32.3024 56.245C32.4702 57.4558 32.3133 58.6842 30.7702 58.8194C29.2271 58.9545 28.5059 57.9746 28.3382 57.4677L27.3319 48.0064C25.5708 50.5125 21.8137 55.7613 20.8745 56.7074C19.7004 57.8901 18.9064 58.0469 17.3523 56.7074C16.3916 55.8794 16.905 54.3421 17.3523 53.5818C18.5543 51.9486 21.1764 48.4287 22.0486 47.415C22.9207 46.4013 22.412 45.8099 22.0486 45.641L17.3523 44.4583C17.3243 43.4728 17.2852 41.3665 17.3523 40.8258C17.4194 40.2852 16.8455 41.0571 22.0486 42.001C24.6598 42.4747 28.2955 41.3997 30.1832 39.1363C31.8731 37.11 32.9703 34.1067 30.7702 30.9319C29.6404 29.3015 28.3382 27.4996 30.1832 25.1976Z" fill="#00B2FF"/>
<path d="M64.7314 41.8038C69.0874 43.6279 75.1187 44.6643 81.2756 44.6643C92.8356 44.6643 98.6994 41.2648 98.6994 35.4608C98.6994 30.5273 94.3854 27.7497 85.7991 27.0449L79.0558 26.4645C74.4067 26.0914 72.2706 25.0964 72.2706 23.065C72.2706 20.8678 75.0768 19.5826 80.438 19.5826C86.4693 19.5826 92.1236 20.9092 95.9769 23.1894L96.9403 17.261C92.71 15.4368 86.7206 14.4004 80.5636 14.4004C70.0088 14.4004 64.7314 17.717 64.7314 23.4796C64.7314 25.5939 65.4016 27.2522 66.7 28.4545C69.3387 30.9005 73.4433 31.7296 79.3071 32.1856L85.7572 32.7246C89.3174 32.9733 91.0765 33.9683 91.0765 35.751C91.0765 38.2799 87.1394 39.4821 81.1081 39.4821C75.2443 39.4821 69.4225 37.9897 65.6948 35.8753L64.7314 41.8038Z" fill="white"/>
<path d="M104.114 15.0223V44.0425H111.695V15.0223H104.114Z" fill="white"/>
<path d="M119.289 15.0223V44.0425H142.744C149.068 44.0425 152.963 40.9746 152.963 35.8339C152.963 31.854 150.534 29.2836 145.885 28.6203C149.78 27.9155 151.833 25.6768 151.833 22.1529C151.833 17.5512 148.44 15.0223 142.409 15.0223H119.289ZM139.979 26.506H126.87V19.9142H139.854C142.325 19.9142 143.958 21.158 143.958 23.1065C143.958 25.1379 142.367 26.506 139.979 26.506ZM140.314 39.1505H126.87V31.3979H140.44C143.288 31.3979 145.089 32.849 145.089 35.1706C145.089 37.6166 143.288 39.1505 140.314 39.1505Z" fill="white"/>
<path d="M158.759 15.0223V44.0425H189V38.8603H166.341V31.9783H187.869V27.0864H166.341V20.2044H189V15.0223H158.759Z" fill="white"/>
</svg>
