<svg width="28.8" height="24" viewBox="0 0 48 40" fill="none" xmlns="http://www.w3.org/2000/svg">
<path d="M47.2712 5.28562C45.5664 6.05645 43.735 6.57729 41.8097 6.8127C43.7963 5.59977 45.2825 3.69076 45.991 1.44187C44.1246 2.5731 42.082 3.36936 39.9518 3.79604C38.5193 2.23534 36.622 1.20088 34.5543 0.853272C32.4866 0.505663 30.3643 0.86435 28.5169 1.87364C26.6695 2.88294 25.2003 4.48637 24.3374 6.435C23.4746 8.38363 23.2663 10.5684 23.745 12.6502C19.9632 12.4564 16.2636 11.4534 12.8863 9.70625C9.50895 7.95908 6.52939 5.50679 4.14096 2.50853C3.32429 3.94603 2.85471 5.6127 2.85471 7.3877C2.8538 8.98561 3.23943 10.559 3.97738 11.9684C4.71533 13.3777 5.78279 14.5794 7.08504 15.4669C5.57478 15.4178 4.09783 15.0014 2.77713 14.2523V14.3773C2.77698 16.6184 3.53669 18.7906 4.92738 20.5252C6.31806 22.2598 8.25404 23.4501 10.4068 23.894C9.00581 24.2809 7.53694 24.3379 6.11117 24.0606C6.71856 25.989 7.9017 27.6753 9.49496 28.8834C11.0882 30.0915 13.0118 30.761 14.9965 30.7981C11.6274 33.4969 7.46661 34.9608 3.18342 34.9544C2.4247 34.9546 1.66662 34.9094 0.913086 34.819C5.26077 37.6714 10.3218 39.1852 15.4906 39.1794C32.9877 39.1794 42.5529 24.3919 42.5529 11.5669C42.5529 11.1502 42.5427 10.7294 42.5243 10.3127C44.3848 8.93973 45.9909 7.23957 47.2671 5.29187L47.2712 5.28562Z" fill="white"/>
</svg>
